<svg width="24" height="25" viewBox="0 0 24 25" fill="none" xmlns="http://www.w3.org/2000/svg">
<g clip-path="url(#clip0_95_45599)">
<path d="M20.01 15.8801C18.78 15.8801 17.59 15.6801 16.48 15.3201C16.13 15.2001 15.74 15.2901 15.47 15.5601L13.9 17.5301C11.07 16.1801 8.42 13.6301 7.01 10.7001L8.96 9.04006C9.23 8.76006 9.31 8.37006 9.2 8.02006C8.83 6.91006 8.64 5.72006 8.64 4.49006C8.64 3.95006 8.19 3.50006 7.65 3.50006H4.19C3.65 3.50006 3 3.74006 3 4.49006C3 13.7801 10.73 21.5001 20.01 21.5001C20.72 21.5001 21 20.8701 21 20.3201V16.8701C21 16.3301 20.55 15.8801 20.01 15.8801Z" fill="white"/>
</g>
<defs>
<clipPath id="clip0_95_45599">
<rect width="24" height="24" fill="white" transform="translate(0 0.500061)"/>
</clipPath>
</defs>
</svg>
