<svg width="395" height="298" viewBox="0 0 395 298" fill="none" xmlns="http://www.w3.org/2000/svg">
<g clip-path="url(#clip0_61_2213)">
<path d="M0.5 0.65889H4.5V4.65889H0.5V0.65889Z" fill="#FDE428"/>
<path d="M20.5 0.65889H24.5V4.65889H20.5V0.65889Z" fill="#FDE428"/>
<path d="M40.5 0.65889H44.5V4.65889H40.5V0.65889Z" fill="#FDE428"/>
<path d="M60.5 0.65889H64.5V4.65889H60.5V0.65889Z" fill="#FDE428"/>
<path d="M80.5 0.65889H84.5V4.65889H80.5V0.65889Z" fill="#FDE428"/>
<path d="M100.5 0.65889H104.5V4.65889H100.5V0.65889Z" fill="#FDE428"/>
<path d="M120.5 0.65889H124.5V4.65889H120.5V0.65889Z" fill="#FDE428"/>
<path d="M140.5 0.65889H144.5V4.65889H140.5V0.65889Z" fill="#FDE428"/>
<path d="M160.5 0.65889H164.5V4.65889H160.5V0.65889Z" fill="#FDE428"/>
<path d="M180.5 0.65889H184.5V4.65889H180.5V0.65889Z" fill="#FDE428"/>
<path d="M200.5 0.65889H204.5V4.65889H200.5V0.65889Z" fill="#FDE428"/>
<path d="M220.5 0.65889H224.5V4.65889H220.5V0.65889Z" fill="#FDE428"/>
<path d="M240.5 0.65889H244.5V4.65889H240.5V0.65889Z" fill="#FDE428"/>
<path d="M260.5 0.65889H264.5V4.65889H260.5V0.65889Z" fill="#FDE428"/>
<path d="M280.5 0.65889H284.5V4.65889H280.5V0.65889Z" fill="#FDE428"/>
<path d="M300.5 0.65889H304.5V4.65889H300.5V0.65889Z" fill="#FDE428"/>
<path d="M320.5 0.65889H324.5V4.65889H320.5V0.65889Z" fill="#FDE428"/>
<path d="M340.5 0.65889H344.5V4.65889H340.5V0.65889Z" fill="#FDE428"/>
<path d="M360.5 0.65889H364.5V4.65889H360.5V0.65889Z" fill="#FDE428"/>
<path d="M380.5 0.65889H384.5V4.65889H380.5V0.65889Z" fill="#FDE428"/>
<path d="M400.5 0.65889H404.5V4.65889H400.5V0.65889Z" fill="#FDE428"/>
<path d="M0.5 20.6589H4.5V24.6589H0.5V20.6589Z" fill="#FDE428"/>
<path d="M20.5 20.6589H24.5V24.6589H20.5V20.6589Z" fill="#FDE428"/>
<path d="M40.5 20.6589H44.5V24.6589H40.5V20.6589Z" fill="#FDE428"/>
<path d="M60.5 20.6589H64.5V24.6589H60.5V20.6589Z" fill="#FDE428"/>
<path d="M80.5 20.6589H84.5V24.6589H80.5V20.6589Z" fill="#FDE428"/>
<path d="M100.5 20.6589H104.5V24.6589H100.5V20.6589Z" fill="#FDE428"/>
<path d="M120.5 20.6589H124.5V24.6589H120.5V20.6589Z" fill="#FDE428"/>
<path d="M140.5 20.6589H144.5V24.6589H140.5V20.6589Z" fill="#FDE428"/>
<path d="M160.5 20.6589H164.5V24.6589H160.5V20.6589Z" fill="#FDE428"/>
<path d="M180.5 20.6589H184.5V24.6589H180.5V20.6589Z" fill="#FDE428"/>
<path d="M200.5 20.6589H204.5V24.6589H200.5V20.6589Z" fill="#FDE428"/>
<path d="M220.5 20.6589H224.5V24.6589H220.5V20.6589Z" fill="#FDE428"/>
<path d="M240.5 20.6589H244.5V24.6589H240.5V20.6589Z" fill="#FDE428"/>
<path d="M260.5 20.6589H264.5V24.6589H260.5V20.6589Z" fill="#FDE428"/>
<path d="M280.5 20.6589H284.5V24.6589H280.5V20.6589Z" fill="#FDE428"/>
<path d="M300.5 20.6589H304.5V24.6589H300.5V20.6589Z" fill="#FDE428"/>
<path d="M320.5 20.6589H324.5V24.6589H320.5V20.6589Z" fill="#FDE428"/>
<path d="M340.5 20.6589H344.5V24.6589H340.5V20.6589Z" fill="#FDE428"/>
<path d="M360.5 20.6589H364.5V24.6589H360.5V20.6589Z" fill="#FDE428"/>
<path d="M380.5 20.6589H384.5V24.6589H380.5V20.6589Z" fill="#FDE428"/>
<path d="M400.5 20.6589H404.5V24.6589H400.5V20.6589Z" fill="#FDE428"/>
<path d="M0.5 40.6589H4.5V44.6589H0.5V40.6589Z" fill="#FDE428"/>
<path d="M20.5 40.6589H24.5V44.6589H20.5V40.6589Z" fill="#FDE428"/>
<path d="M40.5 40.6589H44.5V44.6589H40.5V40.6589Z" fill="#FDE428"/>
<path d="M60.5 40.6589H64.5V44.6589H60.5V40.6589Z" fill="#FDE428"/>
<path d="M80.5 40.6589H84.5V44.6589H80.5V40.6589Z" fill="#FDE428"/>
<path d="M100.5 40.6589H104.5V44.6589H100.5V40.6589Z" fill="#FDE428"/>
<path d="M120.5 40.6589H124.5V44.6589H120.5V40.6589Z" fill="#FDE428"/>
<path d="M140.5 40.6589H144.5V44.6589H140.5V40.6589Z" fill="#FDE428"/>
<path d="M160.5 40.6589H164.5V44.6589H160.5V40.6589Z" fill="#FDE428"/>
<path d="M180.5 40.6589H184.5V44.6589H180.5V40.6589Z" fill="#FDE428"/>
<path d="M200.5 40.6589H204.5V44.6589H200.5V40.6589Z" fill="#FDE428"/>
<path d="M220.5 40.6589H224.5V44.6589H220.5V40.6589Z" fill="#FDE428"/>
<path d="M240.5 40.6589H244.5V44.6589H240.5V40.6589Z" fill="#FDE428"/>
<path d="M260.5 40.6589H264.5V44.6589H260.5V40.6589Z" fill="#FDE428"/>
<path d="M280.5 40.6589H284.5V44.6589H280.5V40.6589Z" fill="#FDE428"/>
<path d="M300.5 40.6589H304.5V44.6589H300.5V40.6589Z" fill="#FDE428"/>
<path d="M320.5 40.6589H324.5V44.6589H320.5V40.6589Z" fill="#FDE428"/>
<path d="M340.5 40.6589H344.5V44.6589H340.5V40.6589Z" fill="#FDE428"/>
<path d="M360.5 40.6589H364.5V44.6589H360.5V40.6589Z" fill="#FDE428"/>
<path d="M380.5 40.6589H384.5V44.6589H380.5V40.6589Z" fill="#FDE428"/>
<path d="M400.5 40.6589H404.5V44.6589H400.5V40.6589Z" fill="#FDE428"/>
<path d="M0.5 60.6589H4.5V64.6589H0.5V60.6589Z" fill="#FDE428"/>
<path d="M20.5 60.6589H24.5V64.6589H20.5V60.6589Z" fill="#FDE428"/>
<path d="M40.5 60.6589H44.5V64.6589H40.5V60.6589Z" fill="#FDE428"/>
<path d="M60.5 60.6589H64.5V64.6589H60.5V60.6589Z" fill="#FDE428"/>
<path d="M80.5 60.6589H84.5V64.6589H80.5V60.6589Z" fill="#FDE428"/>
<path d="M100.5 60.6589H104.5V64.6589H100.5V60.6589Z" fill="#FDE428"/>
<path d="M120.5 60.6589H124.5V64.6589H120.5V60.6589Z" fill="#FDE428"/>
<path d="M140.5 60.6589H144.5V64.6589H140.5V60.6589Z" fill="#FDE428"/>
<path d="M160.5 60.6589H164.5V64.6589H160.5V60.6589Z" fill="#FDE428"/>
<path d="M180.5 60.6589H184.5V64.6589H180.5V60.6589Z" fill="#FDE428"/>
<path d="M200.5 60.6589H204.5V64.6589H200.5V60.6589Z" fill="#FDE428"/>
<path d="M220.5 60.6589H224.5V64.6589H220.5V60.6589Z" fill="#FDE428"/>
<path d="M240.5 60.6589H244.5V64.6589H240.5V60.6589Z" fill="#FDE428"/>
<path d="M260.5 60.6589H264.5V64.6589H260.5V60.6589Z" fill="#FDE428"/>
<path d="M280.5 60.6589H284.5V64.6589H280.5V60.6589Z" fill="#FDE428"/>
<path d="M300.5 60.6589H304.5V64.6589H300.5V60.6589Z" fill="#FDE428"/>
<path d="M320.5 60.6589H324.5V64.6589H320.5V60.6589Z" fill="#FDE428"/>
<path d="M340.5 60.6589H344.5V64.6589H340.5V60.6589Z" fill="#FDE428"/>
<path d="M360.5 60.6589H364.5V64.6589H360.5V60.6589Z" fill="#FDE428"/>
<path d="M380.5 60.6589H384.5V64.6589H380.5V60.6589Z" fill="#FDE428"/>
<path d="M400.5 60.6589H404.5V64.6589H400.5V60.6589Z" fill="#FDE428"/>
<path d="M0.5 80.6589H4.5V84.6589H0.5V80.6589Z" fill="#FDE428"/>
<path d="M20.5 80.6589H24.5V84.6589H20.5V80.6589Z" fill="#FDE428"/>
<path d="M40.5 80.6589H44.5V84.6589H40.5V80.6589Z" fill="#FDE428"/>
<path d="M60.5 80.6589H64.5V84.6589H60.5V80.6589Z" fill="#FDE428"/>
<path d="M80.5 80.6589H84.5V84.6589H80.5V80.6589Z" fill="#FDE428"/>
<path d="M100.5 80.6589H104.5V84.6589H100.5V80.6589Z" fill="#FDE428"/>
<path d="M120.5 80.6589H124.5V84.6589H120.5V80.6589Z" fill="#FDE428"/>
<path d="M140.5 80.6589H144.5V84.6589H140.5V80.6589Z" fill="#FDE428"/>
<path d="M160.5 80.6589H164.5V84.6589H160.5V80.6589Z" fill="#FDE428"/>
<path d="M180.5 80.6589H184.5V84.6589H180.5V80.6589Z" fill="#FDE428"/>
<path d="M200.5 80.6589H204.5V84.6589H200.5V80.6589Z" fill="#FDE428"/>
<path d="M220.5 80.6589H224.5V84.6589H220.5V80.6589Z" fill="#FDE428"/>
<path d="M240.5 80.6589H244.5V84.6589H240.5V80.6589Z" fill="#FDE428"/>
<path d="M260.5 80.6589H264.5V84.6589H260.5V80.6589Z" fill="#FDE428"/>
<path d="M280.5 80.6589H284.5V84.6589H280.5V80.6589Z" fill="#FDE428"/>
<path d="M300.5 80.6589H304.5V84.6589H300.5V80.6589Z" fill="#FDE428"/>
<path d="M320.5 80.6589H324.5V84.6589H320.5V80.6589Z" fill="#FDE428"/>
<path d="M340.5 80.6589H344.5V84.6589H340.5V80.6589Z" fill="#FDE428"/>
<path d="M360.5 80.6589H364.5V84.6589H360.5V80.6589Z" fill="#FDE428"/>
<path d="M380.5 80.6589H384.5V84.6589H380.5V80.6589Z" fill="#FDE428"/>
<path d="M400.5 80.6589H404.5V84.6589H400.5V80.6589Z" fill="#FDE428"/>
<path d="M0.5 100.659H4.5V104.659H0.5V100.659Z" fill="#FDE428"/>
<path d="M20.5 100.659H24.5V104.659H20.5V100.659Z" fill="#FDE428"/>
<path d="M40.5 100.659H44.5V104.659H40.5V100.659Z" fill="#FDE428"/>
<path d="M60.5 100.659H64.5V104.659H60.5V100.659Z" fill="#FDE428"/>
<path d="M80.5 100.659H84.5V104.659H80.5V100.659Z" fill="#FDE428"/>
<path d="M100.5 100.659H104.5V104.659H100.5V100.659Z" fill="#FDE428"/>
<path d="M120.5 100.659H124.5V104.659H120.5V100.659Z" fill="#FDE428"/>
<path d="M140.5 100.659H144.5V104.659H140.5V100.659Z" fill="#FDE428"/>
<path d="M160.5 100.659H164.5V104.659H160.5V100.659Z" fill="#FDE428"/>
<path d="M180.5 100.659H184.5V104.659H180.5V100.659Z" fill="#FDE428"/>
<path d="M200.5 100.659H204.5V104.659H200.5V100.659Z" fill="#FDE428"/>
<path d="M220.5 100.659H224.5V104.659H220.5V100.659Z" fill="#FDE428"/>
<path d="M240.5 100.659H244.5V104.659H240.5V100.659Z" fill="#FDE428"/>
<path d="M260.5 100.659H264.5V104.659H260.5V100.659Z" fill="#FDE428"/>
<path d="M280.5 100.659H284.5V104.659H280.5V100.659Z" fill="#FDE428"/>
<path d="M300.5 100.659H304.5V104.659H300.5V100.659Z" fill="#FDE428"/>
<path d="M320.5 100.659H324.5V104.659H320.5V100.659Z" fill="#FDE428"/>
<path d="M340.5 100.659H344.5V104.659H340.5V100.659Z" fill="#FDE428"/>
<path d="M360.5 100.659H364.5V104.659H360.5V100.659Z" fill="#FDE428"/>
<path d="M380.5 100.659H384.5V104.659H380.5V100.659Z" fill="#FDE428"/>
<path d="M400.5 100.659H404.5V104.659H400.5V100.659Z" fill="#FDE428"/>
<path d="M0.5 120.659H4.5V124.659H0.5V120.659Z" fill="#FDE428"/>
<path d="M20.5 120.659H24.5V124.659H20.5V120.659Z" fill="#FDE428"/>
<path d="M40.5 120.659H44.5V124.659H40.5V120.659Z" fill="#FDE428"/>
<path d="M60.5 120.659H64.5V124.659H60.5V120.659Z" fill="#FDE428"/>
<path d="M80.5 120.659H84.5V124.659H80.5V120.659Z" fill="#FDE428"/>
<path d="M100.5 120.659H104.5V124.659H100.5V120.659Z" fill="#FDE428"/>
<path d="M120.5 120.659H124.5V124.659H120.5V120.659Z" fill="#FDE428"/>
<path d="M140.5 120.659H144.5V124.659H140.5V120.659Z" fill="#FDE428"/>
<path d="M160.5 120.659H164.5V124.659H160.5V120.659Z" fill="#FDE428"/>
<path d="M180.5 120.659H184.5V124.659H180.5V120.659Z" fill="#FDE428"/>
<path d="M200.5 120.659H204.5V124.659H200.5V120.659Z" fill="#FDE428"/>
<path d="M220.5 120.659H224.5V124.659H220.5V120.659Z" fill="#FDE428"/>
<path d="M240.5 120.659H244.5V124.659H240.5V120.659Z" fill="#FDE428"/>
<path d="M260.5 120.659H264.5V124.659H260.5V120.659Z" fill="#FDE428"/>
<path d="M280.5 120.659H284.5V124.659H280.5V120.659Z" fill="#FDE428"/>
<path d="M300.5 120.659H304.5V124.659H300.5V120.659Z" fill="#FDE428"/>
<path d="M320.5 120.659H324.5V124.659H320.5V120.659Z" fill="#FDE428"/>
<path d="M340.5 120.659H344.5V124.659H340.5V120.659Z" fill="#FDE428"/>
<path d="M360.5 120.659H364.5V124.659H360.5V120.659Z" fill="#FDE428"/>
<path d="M380.5 120.659H384.5V124.659H380.5V120.659Z" fill="#FDE428"/>
<path d="M400.5 120.659H404.5V124.659H400.5V120.659Z" fill="#FDE428"/>
<path d="M0.5 140.659H4.5V144.659H0.5V140.659Z" fill="#FDE428"/>
<path d="M20.5 140.659H24.5V144.659H20.5V140.659Z" fill="#FDE428"/>
<path d="M40.5 140.659H44.5V144.659H40.5V140.659Z" fill="#FDE428"/>
<path d="M60.5 140.659H64.5V144.659H60.5V140.659Z" fill="#FDE428"/>
<path d="M80.5 140.659H84.5V144.659H80.5V140.659Z" fill="#FDE428"/>
<path d="M100.5 140.659H104.5V144.659H100.5V140.659Z" fill="#FDE428"/>
<path d="M120.5 140.659H124.5V144.659H120.5V140.659Z" fill="#FDE428"/>
<path d="M140.5 140.659H144.5V144.659H140.5V140.659Z" fill="#FDE428"/>
<path d="M160.5 140.659H164.5V144.659H160.5V140.659Z" fill="#FDE428"/>
<path d="M180.5 140.659H184.5V144.659H180.5V140.659Z" fill="#FDE428"/>
<path d="M200.5 140.659H204.5V144.659H200.5V140.659Z" fill="#FDE428"/>
<path d="M220.5 140.659H224.5V144.659H220.5V140.659Z" fill="#FDE428"/>
<path d="M240.5 140.659H244.5V144.659H240.5V140.659Z" fill="#FDE428"/>
<path d="M260.5 140.659H264.5V144.659H260.5V140.659Z" fill="#FDE428"/>
<path d="M280.5 140.659H284.5V144.659H280.5V140.659Z" fill="#FDE428"/>
<path d="M300.5 140.659H304.5V144.659H300.5V140.659Z" fill="#FDE428"/>
<path d="M320.5 140.659H324.5V144.659H320.5V140.659Z" fill="#FDE428"/>
<path d="M340.5 140.659H344.5V144.659H340.5V140.659Z" fill="#FDE428"/>
<path d="M360.5 140.659H364.5V144.659H360.5V140.659Z" fill="#FDE428"/>
<path d="M380.5 140.659H384.5V144.659H380.5V140.659Z" fill="#FDE428"/>
<path d="M400.5 140.659H404.5V144.659H400.5V140.659Z" fill="#FDE428"/>
<path d="M0.5 160.659H4.5V164.659H0.5V160.659Z" fill="#FDE428"/>
<path d="M20.5 160.659H24.5V164.659H20.5V160.659Z" fill="#FDE428"/>
<path d="M40.5 160.659H44.5V164.659H40.5V160.659Z" fill="#FDE428"/>
<path d="M60.5 160.659H64.5V164.659H60.5V160.659Z" fill="#FDE428"/>
<path d="M80.5 160.659H84.5V164.659H80.5V160.659Z" fill="#FDE428"/>
<path d="M100.5 160.659H104.5V164.659H100.5V160.659Z" fill="#FDE428"/>
<path d="M120.5 160.659H124.5V164.659H120.5V160.659Z" fill="#FDE428"/>
<path d="M140.5 160.659H144.5V164.659H140.5V160.659Z" fill="#FDE428"/>
<path d="M160.5 160.659H164.5V164.659H160.5V160.659Z" fill="#FDE428"/>
<path d="M180.5 160.659H184.5V164.659H180.5V160.659Z" fill="#FDE428"/>
<path d="M200.5 160.659H204.5V164.659H200.5V160.659Z" fill="#FDE428"/>
<path d="M220.5 160.659H224.5V164.659H220.5V160.659Z" fill="#FDE428"/>
<path d="M240.5 160.659H244.5V164.659H240.5V160.659Z" fill="#FDE428"/>
<path d="M260.5 160.659H264.5V164.659H260.5V160.659Z" fill="#FDE428"/>
<path d="M280.5 160.659H284.5V164.659H280.5V160.659Z" fill="#FDE428"/>
<path d="M300.5 160.659H304.5V164.659H300.5V160.659Z" fill="#FDE428"/>
<path d="M320.5 160.659H324.5V164.659H320.5V160.659Z" fill="#FDE428"/>
<path d="M340.5 160.659H344.5V164.659H340.5V160.659Z" fill="#FDE428"/>
<path d="M360.5 160.659H364.5V164.659H360.5V160.659Z" fill="#FDE428"/>
<path d="M380.5 160.659H384.5V164.659H380.5V160.659Z" fill="#FDE428"/>
<path d="M400.5 160.659H404.5V164.659H400.5V160.659Z" fill="#FDE428"/>
<path d="M0.5 180.659H4.5V184.659H0.5V180.659Z" fill="#FDE428"/>
<path d="M20.5 180.659H24.5V184.659H20.5V180.659Z" fill="#FDE428"/>
<path d="M40.5 180.659H44.5V184.659H40.5V180.659Z" fill="#FDE428"/>
<path d="M60.5 180.659H64.5V184.659H60.5V180.659Z" fill="#FDE428"/>
<path d="M80.5 180.659H84.5V184.659H80.5V180.659Z" fill="#FDE428"/>
<path d="M100.5 180.659H104.5V184.659H100.5V180.659Z" fill="#FDE428"/>
<path d="M120.5 180.659H124.5V184.659H120.5V180.659Z" fill="#FDE428"/>
<path d="M140.5 180.659H144.5V184.659H140.5V180.659Z" fill="#FDE428"/>
<path d="M160.5 180.659H164.5V184.659H160.5V180.659Z" fill="#FDE428"/>
<path d="M180.5 180.659H184.5V184.659H180.5V180.659Z" fill="#FDE428"/>
<path d="M200.5 180.659H204.5V184.659H200.5V180.659Z" fill="#FDE428"/>
<path d="M220.5 180.659H224.5V184.659H220.5V180.659Z" fill="#FDE428"/>
<path d="M240.5 180.659H244.5V184.659H240.5V180.659Z" fill="#FDE428"/>
<path d="M260.5 180.659H264.5V184.659H260.5V180.659Z" fill="#FDE428"/>
<path d="M280.5 180.659H284.5V184.659H280.5V180.659Z" fill="#FDE428"/>
<path d="M300.5 180.659H304.5V184.659H300.5V180.659Z" fill="#FDE428"/>
<path d="M320.5 180.659H324.5V184.659H320.5V180.659Z" fill="#FDE428"/>
<path d="M340.5 180.659H344.5V184.659H340.5V180.659Z" fill="#FDE428"/>
<path d="M360.5 180.659H364.5V184.659H360.5V180.659Z" fill="#FDE428"/>
<path d="M380.5 180.659H384.5V184.659H380.5V180.659Z" fill="#FDE428"/>
<path d="M400.5 180.659H404.5V184.659H400.5V180.659Z" fill="#FDE428"/>
<path d="M0.5 200.659H4.5V204.659H0.5V200.659Z" fill="#FDE428"/>
<path d="M20.5 200.659H24.5V204.659H20.5V200.659Z" fill="#FDE428"/>
<path d="M40.5 200.659H44.5V204.659H40.5V200.659Z" fill="#FDE428"/>
<path d="M60.5 200.659H64.5V204.659H60.5V200.659Z" fill="#FDE428"/>
<path d="M80.5 200.659H84.5V204.659H80.5V200.659Z" fill="#FDE428"/>
<path d="M100.5 200.659H104.5V204.659H100.5V200.659Z" fill="#FDE428"/>
<path d="M120.5 200.659H124.5V204.659H120.5V200.659Z" fill="#FDE428"/>
<path d="M140.5 200.659H144.5V204.659H140.5V200.659Z" fill="#FDE428"/>
<path d="M160.5 200.659H164.5V204.659H160.5V200.659Z" fill="#FDE428"/>
<path d="M180.5 200.659H184.5V204.659H180.5V200.659Z" fill="#FDE428"/>
<path d="M200.5 200.659H204.5V204.659H200.5V200.659Z" fill="#FDE428"/>
<path d="M220.5 200.659H224.5V204.659H220.5V200.659Z" fill="#FDE428"/>
<path d="M240.5 200.659H244.5V204.659H240.5V200.659Z" fill="#FDE428"/>
<path d="M260.5 200.659H264.5V204.659H260.5V200.659Z" fill="#FDE428"/>
<path d="M280.5 200.659H284.5V204.659H280.5V200.659Z" fill="#FDE428"/>
<path d="M300.5 200.659H304.5V204.659H300.5V200.659Z" fill="#FDE428"/>
<path d="M320.5 200.659H324.5V204.659H320.5V200.659Z" fill="#FDE428"/>
<path d="M340.5 200.659H344.5V204.659H340.5V200.659Z" fill="#FDE428"/>
<path d="M360.5 200.659H364.5V204.659H360.5V200.659Z" fill="#FDE428"/>
<path d="M380.5 200.659H384.5V204.659H380.5V200.659Z" fill="#FDE428"/>
<path d="M400.5 200.659H404.5V204.659H400.5V200.659Z" fill="#FDE428"/>
<path d="M0.5 220.659H4.5V224.659H0.5V220.659Z" fill="#FDE428"/>
<path d="M20.5 220.659H24.5V224.659H20.5V220.659Z" fill="#FDE428"/>
<path d="M40.5 220.659H44.5V224.659H40.5V220.659Z" fill="#FDE428"/>
<path d="M60.5 220.659H64.5V224.659H60.5V220.659Z" fill="#FDE428"/>
<path d="M80.5 220.659H84.5V224.659H80.5V220.659Z" fill="#FDE428"/>
<path d="M100.5 220.659H104.5V224.659H100.5V220.659Z" fill="#FDE428"/>
<path d="M120.5 220.659H124.5V224.659H120.5V220.659Z" fill="#FDE428"/>
<path d="M140.5 220.659H144.5V224.659H140.5V220.659Z" fill="#FDE428"/>
<path d="M160.5 220.659H164.5V224.659H160.5V220.659Z" fill="#FDE428"/>
<path d="M180.5 220.659H184.5V224.659H180.5V220.659Z" fill="#FDE428"/>
<path d="M200.5 220.659H204.5V224.659H200.5V220.659Z" fill="#FDE428"/>
<path d="M220.5 220.659H224.5V224.659H220.5V220.659Z" fill="#FDE428"/>
<path d="M240.5 220.659H244.5V224.659H240.5V220.659Z" fill="#FDE428"/>
<path d="M260.5 220.659H264.5V224.659H260.5V220.659Z" fill="#FDE428"/>
<path d="M280.5 220.659H284.5V224.659H280.5V220.659Z" fill="#FDE428"/>
<path d="M300.5 220.659H304.5V224.659H300.5V220.659Z" fill="#FDE428"/>
<path d="M320.5 220.659H324.5V224.659H320.5V220.659Z" fill="#FDE428"/>
<path d="M340.5 220.659H344.5V224.659H340.5V220.659Z" fill="#FDE428"/>
<path d="M360.5 220.659H364.5V224.659H360.5V220.659Z" fill="#FDE428"/>
<path d="M380.5 220.659H384.5V224.659H380.5V220.659Z" fill="#FDE428"/>
<path d="M400.5 220.659H404.5V224.659H400.5V220.659Z" fill="#FDE428"/>
<path d="M0.5 240.659H4.5V244.659H0.5V240.659Z" fill="#FDE428"/>
<path d="M20.5 240.659H24.5V244.659H20.5V240.659Z" fill="#FDE428"/>
<path d="M40.5 240.659H44.5V244.659H40.5V240.659Z" fill="#FDE428"/>
<path d="M60.5 240.659H64.5V244.659H60.5V240.659Z" fill="#FDE428"/>
<path d="M80.5 240.659H84.5V244.659H80.5V240.659Z" fill="#FDE428"/>
<path d="M100.5 240.659H104.5V244.659H100.5V240.659Z" fill="#FDE428"/>
<path d="M120.5 240.659H124.5V244.659H120.5V240.659Z" fill="#FDE428"/>
<path d="M140.5 240.659H144.5V244.659H140.5V240.659Z" fill="#FDE428"/>
<path d="M160.5 240.659H164.5V244.659H160.5V240.659Z" fill="#FDE428"/>
<path d="M180.5 240.659H184.5V244.659H180.5V240.659Z" fill="#FDE428"/>
<path d="M200.5 240.659H204.5V244.659H200.5V240.659Z" fill="#FDE428"/>
<path d="M220.5 240.659H224.5V244.659H220.5V240.659Z" fill="#FDE428"/>
<path d="M240.5 240.659H244.5V244.659H240.5V240.659Z" fill="#FDE428"/>
<path d="M260.5 240.659H264.5V244.659H260.5V240.659Z" fill="#FDE428"/>
<path d="M280.5 240.659H284.5V244.659H280.5V240.659Z" fill="#FDE428"/>
<path d="M300.5 240.659H304.5V244.659H300.5V240.659Z" fill="#FDE428"/>
<path d="M320.5 240.659H324.5V244.659H320.5V240.659Z" fill="#FDE428"/>
<path d="M340.5 240.659H344.5V244.659H340.5V240.659Z" fill="#FDE428"/>
<path d="M360.5 240.659H364.5V244.659H360.5V240.659Z" fill="#FDE428"/>
<path d="M380.5 240.659H384.5V244.659H380.5V240.659Z" fill="#FDE428"/>
<path d="M400.5 240.659H404.5V244.659H400.5V240.659Z" fill="#FDE428"/>
<path d="M0.5 260.659H4.5V264.659H0.5V260.659Z" fill="#FDE428"/>
<path d="M20.5 260.659H24.5V264.659H20.5V260.659Z" fill="#FDE428"/>
<path d="M40.5 260.659H44.5V264.659H40.5V260.659Z" fill="#FDE428"/>
<path d="M60.5 260.659H64.5V264.659H60.5V260.659Z" fill="#FDE428"/>
<path d="M80.5 260.659H84.5V264.659H80.5V260.659Z" fill="#FDE428"/>
<path d="M100.5 260.659H104.5V264.659H100.5V260.659Z" fill="#FDE428"/>
<path d="M120.5 260.659H124.5V264.659H120.5V260.659Z" fill="#FDE428"/>
<path d="M140.5 260.659H144.5V264.659H140.5V260.659Z" fill="#FDE428"/>
<path d="M160.5 260.659H164.5V264.659H160.5V260.659Z" fill="#FDE428"/>
<path d="M180.5 260.659H184.5V264.659H180.5V260.659Z" fill="#FDE428"/>
<path d="M200.5 260.659H204.5V264.659H200.5V260.659Z" fill="#FDE428"/>
<path d="M220.5 260.659H224.5V264.659H220.5V260.659Z" fill="#FDE428"/>
<path d="M240.5 260.659H244.5V264.659H240.5V260.659Z" fill="#FDE428"/>
<path d="M260.5 260.659H264.5V264.659H260.5V260.659Z" fill="#FDE428"/>
<path d="M280.5 260.659H284.5V264.659H280.5V260.659Z" fill="#FDE428"/>
<path d="M300.5 260.659H304.5V264.659H300.5V260.659Z" fill="#FDE428"/>
<path d="M320.5 260.659H324.5V264.659H320.5V260.659Z" fill="#FDE428"/>
<path d="M340.5 260.659H344.5V264.659H340.5V260.659Z" fill="#FDE428"/>
<path d="M360.5 260.659H364.5V264.659H360.5V260.659Z" fill="#FDE428"/>
<path d="M380.5 260.659H384.5V264.659H380.5V260.659Z" fill="#FDE428"/>
<path d="M400.5 260.659H404.5V264.659H400.5V260.659Z" fill="#FDE428"/>
<path d="M0.5 280.659H4.5V284.659H0.5V280.659Z" fill="#FDE428"/>
<path d="M20.5 280.659H24.5V284.659H20.5V280.659Z" fill="#FDE428"/>
<path d="M40.5 280.659H44.5V284.659H40.5V280.659Z" fill="#FDE428"/>
<path d="M60.5 280.659H64.5V284.659H60.5V280.659Z" fill="#FDE428"/>
<path d="M80.5 280.659H84.5V284.659H80.5V280.659Z" fill="#FDE428"/>
<path d="M100.5 280.659H104.5V284.659H100.5V280.659Z" fill="#FDE428"/>
<path d="M120.5 280.659H124.5V284.659H120.5V280.659Z" fill="#FDE428"/>
<path d="M140.5 280.659H144.5V284.659H140.5V280.659Z" fill="#FDE428"/>
<path d="M160.5 280.659H164.5V284.659H160.5V280.659Z" fill="#FDE428"/>
<path d="M180.5 280.659H184.5V284.659H180.5V280.659Z" fill="#FDE428"/>
<path d="M200.5 280.659H204.5V284.659H200.5V280.659Z" fill="#FDE428"/>
<path d="M220.5 280.659H224.5V284.659H220.5V280.659Z" fill="#FDE428"/>
<path d="M240.5 280.659H244.5V284.659H240.5V280.659Z" fill="#FDE428"/>
<path d="M260.5 280.659H264.5V284.659H260.5V280.659Z" fill="#FDE428"/>
<path d="M280.5 280.659H284.5V284.659H280.5V280.659Z" fill="#FDE428"/>
<path d="M300.5 280.659H304.5V284.659H300.5V280.659Z" fill="#FDE428"/>
<path d="M320.5 280.659H324.5V284.659H320.5V280.659Z" fill="#FDE428"/>
<path d="M340.5 280.659H344.5V284.659H340.5V280.659Z" fill="#FDE428"/>
<path d="M360.5 280.659H364.5V284.659H360.5V280.659Z" fill="#FDE428"/>
<path d="M380.5 280.659H384.5V284.659H380.5V280.659Z" fill="#FDE428"/>
<path d="M400.5 280.659H404.5V284.659H400.5V280.659Z" fill="#FDE428"/>
<path d="M0.5 300.659H4.5V304.659H0.5V300.659Z" fill="#FDE428"/>
<path d="M20.5 300.659H24.5V304.659H20.5V300.659Z" fill="#FDE428"/>
<path d="M40.5 300.659H44.5V304.659H40.5V300.659Z" fill="#FDE428"/>
<path d="M60.5 300.659H64.5V304.659H60.5V300.659Z" fill="#FDE428"/>
<path d="M80.5 300.659H84.5V304.659H80.5V300.659Z" fill="#FDE428"/>
<path d="M100.5 300.659H104.5V304.659H100.5V300.659Z" fill="#FDE428"/>
<path d="M120.5 300.659H124.5V304.659H120.5V300.659Z" fill="#FDE428"/>
<path d="M140.5 300.659H144.5V304.659H140.5V300.659Z" fill="#FDE428"/>
<path d="M160.5 300.659H164.5V304.659H160.5V300.659Z" fill="#FDE428"/>
<path d="M180.5 300.659H184.5V304.659H180.5V300.659Z" fill="#FDE428"/>
<path d="M200.5 300.659H204.5V304.659H200.5V300.659Z" fill="#FDE428"/>
<path d="M220.5 300.659H224.5V304.659H220.5V300.659Z" fill="#FDE428"/>
<path d="M240.5 300.659H244.5V304.659H240.5V300.659Z" fill="#FDE428"/>
<path d="M260.5 300.659H264.5V304.659H260.5V300.659Z" fill="#FDE428"/>
<path d="M280.5 300.659H284.5V304.659H280.5V300.659Z" fill="#FDE428"/>
<path d="M300.5 300.659H304.5V304.659H300.5V300.659Z" fill="#FDE428"/>
<path d="M320.5 300.659H324.5V304.659H320.5V300.659Z" fill="#FDE428"/>
<path d="M340.5 300.659H344.5V304.659H340.5V300.659Z" fill="#FDE428"/>
<path d="M360.5 300.659H364.5V304.659H360.5V300.659Z" fill="#FDE428"/>
<path d="M380.5 300.659H384.5V304.659H380.5V300.659Z" fill="#FDE428"/>
<path d="M400.5 300.659H404.5V304.659H400.5V300.659Z" fill="#FDE428"/>
<path d="M0.5 320.659H4.5V324.659H0.5V320.659Z" fill="#FDE428"/>
<path d="M20.5 320.659H24.5V324.659H20.5V320.659Z" fill="#FDE428"/>
<path d="M40.5 320.659H44.5V324.659H40.5V320.659Z" fill="#FDE428"/>
<path d="M60.5 320.659H64.5V324.659H60.5V320.659Z" fill="#FDE428"/>
<path d="M80.5 320.659H84.5V324.659H80.5V320.659Z" fill="#FDE428"/>
<path d="M100.5 320.659H104.5V324.659H100.5V320.659Z" fill="#FDE428"/>
<path d="M120.5 320.659H124.5V324.659H120.5V320.659Z" fill="#FDE428"/>
<path d="M140.5 320.659H144.5V324.659H140.5V320.659Z" fill="#FDE428"/>
<path d="M160.5 320.659H164.5V324.659H160.5V320.659Z" fill="#FDE428"/>
<path d="M180.5 320.659H184.5V324.659H180.5V320.659Z" fill="#FDE428"/>
<path d="M200.5 320.659H204.5V324.659H200.5V320.659Z" fill="#FDE428"/>
<path d="M220.5 320.659H224.5V324.659H220.5V320.659Z" fill="#FDE428"/>
<path d="M240.5 320.659H244.5V324.659H240.5V320.659Z" fill="#FDE428"/>
<path d="M260.5 320.659H264.5V324.659H260.5V320.659Z" fill="#FDE428"/>
<path d="M280.5 320.659H284.5V324.659H280.5V320.659Z" fill="#FDE428"/>
<path d="M300.5 320.659H304.5V324.659H300.5V320.659Z" fill="#FDE428"/>
<path d="M320.5 320.659H324.5V324.659H320.5V320.659Z" fill="#FDE428"/>
<path d="M340.5 320.659H344.5V324.659H340.5V320.659Z" fill="#FDE428"/>
<path d="M360.5 320.659H364.5V324.659H360.5V320.659Z" fill="#FDE428"/>
<path d="M380.5 320.659H384.5V324.659H380.5V320.659Z" fill="#FDE428"/>
<path d="M400.5 320.659H404.5V324.659H400.5V320.659Z" fill="#FDE428"/>
<path d="M0.5 340.659H4.5V344.659H0.5V340.659Z" fill="#FDE428"/>
<path d="M20.5 340.659H24.5V344.659H20.5V340.659Z" fill="#FDE428"/>
<path d="M40.5 340.659H44.5V344.659H40.5V340.659Z" fill="#FDE428"/>
<path d="M60.5 340.659H64.5V344.659H60.5V340.659Z" fill="#FDE428"/>
<path d="M80.5 340.659H84.5V344.659H80.5V340.659Z" fill="#FDE428"/>
<path d="M100.5 340.659H104.5V344.659H100.5V340.659Z" fill="#FDE428"/>
<path d="M120.5 340.659H124.5V344.659H120.5V340.659Z" fill="#FDE428"/>
<path d="M140.5 340.659H144.5V344.659H140.5V340.659Z" fill="#FDE428"/>
<path d="M160.5 340.659H164.5V344.659H160.5V340.659Z" fill="#FDE428"/>
<path d="M180.5 340.659H184.5V344.659H180.5V340.659Z" fill="#FDE428"/>
<path d="M200.5 340.659H204.5V344.659H200.5V340.659Z" fill="#FDE428"/>
<path d="M220.5 340.659H224.5V344.659H220.5V340.659Z" fill="#FDE428"/>
<path d="M240.5 340.659H244.5V344.659H240.5V340.659Z" fill="#FDE428"/>
<path d="M260.5 340.659H264.5V344.659H260.5V340.659Z" fill="#FDE428"/>
<path d="M280.5 340.659H284.5V344.659H280.5V340.659Z" fill="#FDE428"/>
<path d="M300.5 340.659H304.5V344.659H300.5V340.659Z" fill="#FDE428"/>
<path d="M320.5 340.659H324.5V344.659H320.5V340.659Z" fill="#FDE428"/>
<path d="M340.5 340.659H344.5V344.659H340.5V340.659Z" fill="#FDE428"/>
<path d="M360.5 340.659H364.5V344.659H360.5V340.659Z" fill="#FDE428"/>
<path d="M380.5 340.659H384.5V344.659H380.5V340.659Z" fill="#FDE428"/>
<path d="M400.5 340.659H404.5V344.659H400.5V340.659Z" fill="#FDE428"/>
<path d="M0.5 360.659H4.5V364.659H0.5V360.659Z" fill="#FDE428"/>
<path d="M20.5 360.659H24.5V364.659H20.5V360.659Z" fill="#FDE428"/>
<path d="M40.5 360.659H44.5V364.659H40.5V360.659Z" fill="#FDE428"/>
<path d="M60.5 360.659H64.5V364.659H60.5V360.659Z" fill="#FDE428"/>
<path d="M80.5 360.659H84.5V364.659H80.5V360.659Z" fill="#FDE428"/>
<path d="M100.5 360.659H104.5V364.659H100.5V360.659Z" fill="#FDE428"/>
<path d="M120.5 360.659H124.5V364.659H120.5V360.659Z" fill="#FDE428"/>
<path d="M140.5 360.659H144.5V364.659H140.5V360.659Z" fill="#FDE428"/>
<path d="M160.5 360.659H164.5V364.659H160.5V360.659Z" fill="#FDE428"/>
<path d="M180.5 360.659H184.5V364.659H180.5V360.659Z" fill="#FDE428"/>
<path d="M200.5 360.659H204.5V364.659H200.5V360.659Z" fill="#FDE428"/>
<path d="M220.5 360.659H224.5V364.659H220.5V360.659Z" fill="#FDE428"/>
<path d="M240.5 360.659H244.5V364.659H240.5V360.659Z" fill="#FDE428"/>
<path d="M260.5 360.659H264.5V364.659H260.5V360.659Z" fill="#FDE428"/>
<path d="M280.5 360.659H284.5V364.659H280.5V360.659Z" fill="#FDE428"/>
<path d="M300.5 360.659H304.5V364.659H300.5V360.659Z" fill="#FDE428"/>
<path d="M320.5 360.659H324.5V364.659H320.5V360.659Z" fill="#FDE428"/>
<path d="M340.5 360.659H344.5V364.659H340.5V360.659Z" fill="#FDE428"/>
<path d="M360.5 360.659H364.5V364.659H360.5V360.659Z" fill="#FDE428"/>
<path d="M380.5 360.659H384.5V364.659H380.5V360.659Z" fill="#FDE428"/>
<path d="M400.5 360.659H404.5V364.659H400.5V360.659Z" fill="#FDE428"/>
<path d="M0.5 380.659H4.5V384.659H0.5V380.659Z" fill="#FDE428"/>
<path d="M20.5 380.659H24.5V384.659H20.5V380.659Z" fill="#FDE428"/>
<path d="M40.5 380.659H44.5V384.659H40.5V380.659Z" fill="#FDE428"/>
<path d="M60.5 380.659H64.5V384.659H60.5V380.659Z" fill="#FDE428"/>
<path d="M80.5 380.659H84.5V384.659H80.5V380.659Z" fill="#FDE428"/>
<path d="M100.5 380.659H104.5V384.659H100.5V380.659Z" fill="#FDE428"/>
<path d="M120.5 380.659H124.5V384.659H120.5V380.659Z" fill="#FDE428"/>
<path d="M140.5 380.659H144.5V384.659H140.5V380.659Z" fill="#FDE428"/>
<path d="M160.5 380.659H164.5V384.659H160.5V380.659Z" fill="#FDE428"/>
<path d="M180.5 380.659H184.5V384.659H180.5V380.659Z" fill="#FDE428"/>
<path d="M200.5 380.659H204.5V384.659H200.5V380.659Z" fill="#FDE428"/>
<path d="M220.5 380.659H224.5V384.659H220.5V380.659Z" fill="#FDE428"/>
<path d="M240.5 380.659H244.5V384.659H240.5V380.659Z" fill="#FDE428"/>
<path d="M260.5 380.659H264.5V384.659H260.5V380.659Z" fill="#FDE428"/>
<path d="M280.5 380.659H284.5V384.659H280.5V380.659Z" fill="#FDE428"/>
<path d="M300.5 380.659H304.5V384.659H300.5V380.659Z" fill="#FDE428"/>
<path d="M320.5 380.659H324.5V384.659H320.5V380.659Z" fill="#FDE428"/>
<path d="M340.5 380.659H344.5V384.659H340.5V380.659Z" fill="#FDE428"/>
<path d="M360.5 380.659H364.5V384.659H360.5V380.659Z" fill="#FDE428"/>
<path d="M380.5 380.659H384.5V384.659H380.5V380.659Z" fill="#FDE428"/>
<path d="M400.5 380.659H404.5V384.659H400.5V380.659Z" fill="#FDE428"/>
<path d="M0.5 400.659H4.5V404.659H0.5V400.659Z" fill="#FDE428"/>
<path d="M20.5 400.659H24.5V404.659H20.5V400.659Z" fill="#FDE428"/>
<path d="M40.5 400.659H44.5V404.659H40.5V400.659Z" fill="#FDE428"/>
<path d="M60.5 400.659H64.5V404.659H60.5V400.659Z" fill="#FDE428"/>
<path d="M80.5 400.659H84.5V404.659H80.5V400.659Z" fill="#FDE428"/>
<path d="M100.5 400.659H104.5V404.659H100.5V400.659Z" fill="#FDE428"/>
<path d="M120.5 400.659H124.5V404.659H120.5V400.659Z" fill="#FDE428"/>
<path d="M140.5 400.659H144.5V404.659H140.5V400.659Z" fill="#FDE428"/>
<path d="M160.5 400.659H164.5V404.659H160.5V400.659Z" fill="#FDE428"/>
<path d="M180.5 400.659H184.5V404.659H180.5V400.659Z" fill="#FDE428"/>
<path d="M200.5 400.659H204.5V404.659H200.5V400.659Z" fill="#FDE428"/>
<path d="M220.5 400.659H224.5V404.659H220.5V400.659Z" fill="#FDE428"/>
<path d="M240.5 400.659H244.5V404.659H240.5V400.659Z" fill="#FDE428"/>
<path d="M260.5 400.659H264.5V404.659H260.5V400.659Z" fill="#FDE428"/>
<path d="M280.5 400.659H284.5V404.659H280.5V400.659Z" fill="#FDE428"/>
<path d="M300.5 400.659H304.5V404.659H300.5V400.659Z" fill="#FDE428"/>
<path d="M320.5 400.659H324.5V404.659H320.5V400.659Z" fill="#FDE428"/>
<path d="M340.5 400.659H344.5V404.659H340.5V400.659Z" fill="#FDE428"/>
<path d="M360.5 400.659H364.5V404.659H360.5V400.659Z" fill="#FDE428"/>
<path d="M380.5 400.659H384.5V404.659H380.5V400.659Z" fill="#FDE428"/>
<path d="M400.5 400.659H404.5V404.659H400.5V400.659Z" fill="#FDE428"/>
</g>
<defs>
<clipPath id="clip0_61_2213">
<rect width="404" height="297.063" fill="white" transform="translate(0.5 0.65889)"/>
</clipPath>
</defs>
</svg>
