<svg width="41" height="41" viewBox="0 0 41 41" fill="none" xmlns="http://www.w3.org/2000/svg">
<rect x="0.642853" y="0.321289" width="40" height="40" rx="20" fill="black"/>
<path d="M20.646 10.4843C23.8525 10.4843 24.2289 10.4986 25.4962 10.5558C26.6683 10.6082 27.302 10.8036 27.726 10.9703C28.2882 11.1895 28.6884 11.4468 29.1077 11.866C29.5269 12.2853 29.789 12.6855 30.0034 13.2477C30.1654 13.6717 30.3655 14.3054 30.4179 15.4775C30.4751 16.7448 30.4894 17.1212 30.4894 20.3276C30.4894 23.5341 30.4751 23.9105 30.4179 25.1778C30.3655 26.3499 30.1701 26.9835 30.0034 27.4076C29.7842 27.9698 29.5269 28.37 29.1077 28.7893C28.6884 29.2085 28.2882 29.4706 27.726 29.685C27.302 29.847 26.6683 30.0471 25.4962 30.0995C24.2289 30.1567 23.8525 30.1709 20.646 30.1709C17.4396 30.1709 17.0632 30.1567 15.7959 30.0995C14.6238 30.0471 13.9901 29.8517 13.5661 29.685C13.0039 29.4658 12.6037 29.2085 12.1844 28.7893C11.7651 28.37 11.5031 27.9698 11.2887 27.4076C11.1267 26.9835 10.9266 26.3499 10.8742 25.1778C10.817 23.9105 10.8027 23.5341 10.8027 20.3276C10.8027 17.1212 10.817 16.7448 10.8742 15.4775C10.9266 14.3054 11.122 13.6717 11.2887 13.2477C11.5079 12.6855 11.7651 12.2853 12.1844 11.866C12.6037 11.4468 13.0039 11.1847 13.5661 10.9703C13.9901 10.8083 14.6238 10.6082 15.7959 10.5558C17.0632 10.4939 17.4443 10.4843 20.646 10.4843ZM20.646 8.32129C17.3872 8.32129 16.9774 8.33558 15.6958 8.39276C14.4189 8.44993 13.547 8.6548 12.7847 8.95019C11.9938 9.25512 11.3268 9.66962 10.6598 10.3366C9.99278 11.0037 9.58304 11.6754 9.27335 12.4616C8.97796 13.2239 8.77309 14.0958 8.71591 15.3774C8.65874 16.6543 8.64445 17.064 8.64445 20.3229C8.64445 23.5817 8.65874 23.9915 8.71591 25.2731C8.77309 26.55 8.97796 27.4219 9.27335 28.1889C9.57828 28.9798 9.99278 29.6469 10.6598 30.3139C11.3268 30.9809 11.9986 31.3906 12.7847 31.7003C13.547 31.9957 14.4189 32.2006 15.7006 32.2578C16.9822 32.3149 17.3872 32.3292 20.6508 32.3292C23.9144 32.3292 24.3194 32.3149 25.601 32.2578C26.8779 32.2006 27.7498 31.9957 28.5169 31.7003C29.3078 31.3954 29.9748 30.9809 30.6418 30.3139C31.3088 29.6469 31.7186 28.9751 32.0283 28.1889C32.3237 27.4266 32.5285 26.5547 32.5857 25.2731C32.6429 23.9915 32.6572 23.5865 32.6572 20.3229C32.6572 17.0592 32.6429 16.6543 32.5857 15.3726C32.5285 14.0958 32.3237 13.2239 32.0283 12.4568C31.7233 11.6659 31.3088 10.9989 30.6418 10.3319C29.9748 9.66486 29.303 9.25512 28.5169 8.94543C27.7546 8.65003 26.8827 8.44516 25.601 8.38799C24.3147 8.33558 23.9049 8.32129 20.646 8.32129Z" fill="white"/>
<path d="M20.646 10.4843C23.8525 10.4843 24.2289 10.4986 25.4962 10.5558C26.6683 10.6082 27.302 10.8036 27.726 10.9703C28.2882 11.1895 28.6884 11.4468 29.1077 11.866C29.5269 12.2853 29.789 12.6855 30.0034 13.2477C30.1654 13.6717 30.3655 14.3054 30.4179 15.4775C30.4751 16.7448 30.4894 17.1212 30.4894 20.3276C30.4894 23.5341 30.4751 23.9105 30.4179 25.1778C30.3655 26.3499 30.1701 26.9835 30.0034 27.4076C29.7842 27.9698 29.5269 28.37 29.1077 28.7893C28.6884 29.2085 28.2882 29.4706 27.726 29.685C27.302 29.847 26.6683 30.0471 25.4962 30.0995C24.2289 30.1567 23.8525 30.1709 20.646 30.1709C17.4396 30.1709 17.0632 30.1567 15.7959 30.0995C14.6238 30.0471 13.9901 29.8517 13.5661 29.685C13.0039 29.4658 12.6037 29.2085 12.1844 28.7893C11.7651 28.37 11.5031 27.9698 11.2887 27.4076C11.1267 26.9835 10.9266 26.3499 10.8742 25.1778C10.817 23.9105 10.8027 23.5341 10.8027 20.3276C10.8027 17.1212 10.817 16.7448 10.8742 15.4775C10.9266 14.3054 11.122 13.6717 11.2887 13.2477C11.5079 12.6855 11.7651 12.2853 12.1844 11.866C12.6037 11.4468 13.0039 11.1847 13.5661 10.9703C13.9901 10.8083 14.6238 10.6082 15.7959 10.5558C17.0632 10.4939 17.4443 10.4843 20.646 10.4843Z" fill="white"/>
<path d="M20.646 14.1624C17.2442 14.1624 14.4809 16.921 14.4809 20.3275C14.4809 23.7341 17.2395 26.4927 20.646 26.4927C24.0526 26.4927 26.8112 23.7341 26.8112 20.3275C26.8112 16.921 24.0526 14.1624 20.646 14.1624ZM20.646 24.3249C18.4353 24.3249 16.6439 22.5334 16.6439 20.3228C16.6439 18.1121 18.4353 16.3206 20.646 16.3206C22.8567 16.3206 24.6481 18.1121 24.6481 20.3228C24.6481 22.5334 22.8567 24.3249 20.646 24.3249Z" fill="black"/>
<path d="M27.0542 15.3535C27.8488 15.3535 28.493 14.7093 28.493 13.9147C28.493 13.12 27.8488 12.4758 27.0542 12.4758C26.2595 12.4758 25.6153 13.12 25.6153 13.9147C25.6153 14.7093 26.2595 15.3535 27.0542 15.3535Z" fill="black"/>
</svg>
