<svg width="429" height="42" viewBox="0 0 429 42" fill="none" xmlns="http://www.w3.org/2000/svg">
<path d="M402.634 28.0975C387.548 24.0418 404.156 16.5583 417.235 20.046C421.714 21.2402 424.579 23.422 426.03 26.0525C432.279 37.3824 406.824 39.9705 393.152 39.4341C337.618 37.2547 292.014 15.4158 238.127 9.52006C219.82 7.51685 188.804 13.6091 188.791 26.5439C188.78 37.8448 217.88 39.6243 230.424 34.4216C236.076 32.0771 238.664 28.7378 239.241 24.8502C241.223 11.5158 212.986 5.32314 194.629 3.40624C154.553 -0.778984 109.686 10.2985 75.3368 20.9067C49.6675 28.8344 30.8811 40.1062 2 29.9708" stroke="#FDE428" stroke-width="4" stroke-miterlimit="1.5" stroke-linecap="round" stroke-linejoin="round"/>
</svg>
