<svg width="185" height="185" viewBox="0 0 185 185" fill="none" xmlns="http://www.w3.org/2000/svg">
<path d="M126.54 72.3818C111.648 42.5723 61.4708 49.132 54.3036 81.8796C49.9792 101.64 68.2136 115.468 70.569 133.973H112.371C113.6 129.025 116.101 123.14 117.833 119.523C121.432 112.009 126.523 107.097 128.456 98.7138C130.295 90.7371 130.082 79.4722 126.54 72.3818Z" stroke="#FDE428" stroke-width="7.40575" stroke-miterlimit="1.5" stroke-linecap="round" stroke-linejoin="round"/>
<path fill-rule="evenodd" clip-rule="evenodd" d="M69.802 159.191C69.7901 153.481 69.5098 147.771 69.6089 142.063C69.6482 139.803 69.2621 137.038 71.2184 135.458C74.075 133.151 78.3242 132.815 81.8694 132.73C88.5138 132.571 95.2095 132.627 101.861 132.64C104.89 132.645 109.411 132.12 112.141 133.625C114.74 135.055 115.398 138.953 115.69 141.586C116.25 146.631 117.742 157.897 113.458 161.803C110.761 164.263 106.552 164.778 103.098 165.203C93.9333 166.331 69.8157 166.107 69.802 159.191Z" stroke="#FDE428" stroke-width="7.40575" stroke-miterlimit="1.5" stroke-linecap="round" stroke-linejoin="round"/>
<path d="M94.2268 165.689C94.3016 168.797 94.3382 171.92 94.0938 175.023" stroke="#FDE428" stroke-width="7.40575" stroke-miterlimit="1.5" stroke-linecap="round" stroke-linejoin="round"/>
<path d="M21.751 118.248C25.0114 116.527 28.4165 115.111 31.7119 113.465" stroke="#FDE428" stroke-width="7.40575" stroke-miterlimit="1.5" stroke-linecap="round" stroke-linejoin="round"/>
<path d="M21.751 51.369C25.3905 53.68 28.8721 56.2342 32.52 58.5253" stroke="#FDE428" stroke-width="7.40575" stroke-miterlimit="1.5" stroke-linecap="round" stroke-linejoin="round"/>
<path d="M93.5892 23.9753C93.4612 19.398 93.4894 14.8536 93.6357 10.278" stroke="#FDE428" stroke-width="7.40575" stroke-miterlimit="1.5" stroke-linecap="round" stroke-linejoin="round"/>
<path d="M149.932 55.1553C154.501 52.131 159.206 49.2896 163.853 46.3867" stroke="#FDE428" stroke-width="7.40575" stroke-miterlimit="1.5" stroke-linecap="round" stroke-linejoin="round"/>
<path d="M141.96 117.528C145.483 120.686 149.021 123.806 152.431 127.087" stroke="#FDE428" stroke-width="7.40575" stroke-miterlimit="1.5" stroke-linecap="round" stroke-linejoin="round"/>
</svg>
