<svg width="281" height="278" viewBox="0 0 281 278" fill="none" xmlns="http://www.w3.org/2000/svg">
<path d="M273.781 172.862C275.928 151.898 279.189 122.989 275.468 102.562C211.915 101.108 148.543 100.121 84.9405 101.488C60.8055 102.007 34.7941 106.416 10.7907 103.713C11.6876 122.45 11.715 141.163 12.46 159.873C12.7652 167.534 15.544 175.721 14.7112 183.379C85.8773 182.851 157.101 176.456 228.316 178.735C241.966 179.172 255.761 177.138 269.407 178.745C233.42 175.748 196.625 178.353 160.559 178.801C136.446 179.101 112.328 175.518 88.1306 175.693C65.2502 175.859 42.3939 180.342 19.5794 180.047C14.0721 153.096 6.89466 125.665 3.36176 98.3661C17.9031 98.0663 32.4262 96.0791 46.9429 95.9619C124.218 95.3379 201.394 96.3926 278.574 99.4672C278.442 123.629 272.692 146.95 271.2 170.866C269.139 146.007 274.298 121.112 272.85 96.3302C263.345 94.1672 252.256 95.6071 242.577 95.4453C217.073 95.0185 191.832 94.5137 166.328 95.2787C134.251 96.2406 102.329 97.6868 70.2573 99.1032C48.2746 100.074 23.7625 98.2855 2.13818 103.409C4.38041 129.732 7.04201 156.064 9.59871 182.34" stroke="#FDE428" stroke-width="2.5931" stroke-miterlimit="1.5" stroke-linecap="round" stroke-linejoin="round"/>
</svg>
