<svg width="139" height="139" viewBox="0 0 139 139" fill="none" xmlns="http://www.w3.org/2000/svg">
<path d="M28.5748 63.9535C30.7573 63.9147 37.0213 63.8315 39.2015 63.9535C42.1945 57.7975 46.9149 53.0433 53.1378 50.1348C56.9423 48.3557 61.603 47.8382 64.7437 44.8418C65.9575 43.6854 66.8512 42.1409 67.6241 40.5119C70.4317 34.5917 71.8977 28.3734 74.0486 22.2163C75.1147 19.1612 76.4587 15.4212 79.3027 13.54C85.1116 9.69913 90.4091 15.9794 91.6358 21.2393C93.9685 31.2479 91.0987 41.9871 86.4615 50.9308C96.5029 49.9515 106.857 49.8073 116.709 52.2736C121.382 53.4429 126.35 56.1075 126.733 61.4847C127.002 65.2658 125.295 69.2829 122.506 71.8326C121.592 72.6664 118.601 74.6257 118.616 74.6374C118.707 74.7066 120.295 79.8778 120.654 81.9267C121.733 88.0897 117.565 92.7359 111.787 94.1362C116.3 99.3974 112.861 109.945 104.909 111.003C105.254 122.858 91.3872 123.469 83.0932 124.196C60.6858 126.161 53.5611 124.486 38.5541 120.785C36.8911 120.374 29.6826 119.896 27.9692 119.893" stroke="#FDE428" stroke-width="7.72222" stroke-miterlimit="1.5" stroke-linecap="round" stroke-linejoin="round"/>
<path d="M12.1952 55.47C16.8246 55.4316 24.672 53.3827 28.537 56.7567C30.9418 58.8567 29.3817 66.3819 29.3339 69.337C29.1443 81.2403 29.1757 93.1456 29.1745 105.05C29.1745 110.014 31.3909 119.724 27.4317 123.655C23.7517 127.309 16.1917 126.289 11.5065 126.429" stroke="#FDE428" stroke-width="7.72222" stroke-miterlimit="1.5" stroke-linecap="round" stroke-linejoin="round"/>
</svg>
