<svg width="284" height="284" viewBox="0 0 284 284" fill="none" xmlns="http://www.w3.org/2000/svg">
<path d="M45.2046 127.479C47.6032 127.066 49.7976 126.074 51.8789 124.837C58.0692 121.156 62.5497 114.97 64.2845 107.98C64.6028 109.025 65.6871 111.896 66.0883 112.738C67.56 115.821 69.1888 118.74 71.9774 120.835C83.7763 129.703 95.617 116.521 98.2805 105.79C98.3988 106.645 100.033 112.212 100.428 113.128C102.48 117.877 105.925 122.905 111.104 124.516C121.799 127.844 129.659 118.062 132.109 108.937C132.109 108.937 132.539 110.668 132.82 111.514C133.297 112.948 133.843 114.351 134.551 115.689C136.627 119.611 139.782 123.22 144.027 124.809C154.001 128.544 165.284 120.677 166.951 110.682C166.951 110.682 167.254 112.058 167.514 112.709C168.241 114.53 169.188 116.268 170.258 117.909C172.774 121.768 176.177 125.249 180.443 127.127C189.094 130.935 204.913 123.959 204.41 112.952C204.407 112.951 205.062 114.488 205.111 114.576C205.71 115.632 206.419 116.633 207.13 117.616C208.856 120 210.712 122.252 212.963 124.162C221.006 130.983 228.052 130.267 237.35 127.144" stroke="#FDE428" stroke-width="3" stroke-miterlimit="1.5" stroke-linecap="round" stroke-linejoin="round"/>
<path d="M43.7839 150.362C46.1135 150.082 48.3299 149.201 50.4535 148.244C56.461 145.535 61.1046 141.199 65.3268 136.268C65.3303 136.264 66.8954 138.84 67.0502 139.055C68.5487 141.136 70.5312 142.886 72.7565 144.159C81.1912 148.982 92.0239 145.639 96.146 136.996C96.146 137.817 97.6576 139.932 97.9791 140.299C100.491 143.168 103.541 145.878 107.164 147.218C115.914 150.456 127.479 146.082 131.837 137.77C131.9 139.154 133.381 141.403 133.531 141.589C135.886 144.524 139.26 146.837 142.948 147.664C151.724 149.632 161.211 145.279 165.352 137.285C165.988 139.278 167.278 141.313 167.639 141.715C170.33 144.719 173.674 147.146 177.535 148.383C187.037 151.426 200.061 145.861 203.844 139.162C203.693 139.72 203.985 140.898 204.035 140.995C204.614 142.099 205.404 143.074 206.266 143.969C208.574 146.365 211.396 148.276 214.334 149.812C223.009 154.348 236.241 154.68 241.754 144.922" stroke="#FDE428" stroke-width="3" stroke-miterlimit="1.5" stroke-linecap="round" stroke-linejoin="round"/>
<path d="M42.5999 177.134C44.8032 176.896 47.0125 177.756 49.3456 177.268C57.5558 175.55 62.3721 170.124 67.0693 163.921C67.4053 165.037 68.1296 165.938 68.5445 166.428C70.6818 168.951 73.4013 171.197 76.5155 172.399C84.8549 175.617 91.6917 170.554 95.6888 163.668C95.6888 163.668 96.1978 164.475 96.5009 164.842C97.0658 165.528 97.6605 166.191 98.2773 166.831C100.569 169.209 103.286 171.094 106.454 172.11C114.69 174.753 125.004 170.927 129.111 163.193C129.145 163.466 131.151 166.478 131.352 166.721C134.222 170.188 137.651 172.696 141.942 174.101C151.519 177.237 159.553 171.234 163.799 162.976C163.955 164.069 165.967 166.493 166.172 166.726C168.611 169.506 171.291 171.997 174.596 173.721C182.973 178.092 198.116 177.241 201.011 165.881C200.977 165.874 201.77 167.291 201.895 167.477C202.767 168.774 203.791 169.974 204.905 171.071C207.63 173.756 211.002 175.807 214.546 177.222C221.251 179.902 228.851 178.128 234.652 174.07C236.463 172.804 237.681 170.724 239.407 169.54" stroke="#FDE428" stroke-width="3" stroke-miterlimit="1.5" stroke-linecap="round" stroke-linejoin="round"/>
</svg>
