<svg width="169" height="115" viewBox="0 0 169 115" fill="none" xmlns="http://www.w3.org/2000/svg">
<path d="M56.726 50.3521C56.7155 49.3399 56.1918 48.839 55.1795 48.7914C54.0568 48.739 52.9294 48.6952 51.8153 48.5562C48.3739 48.1258 45.2924 46.8307 42.6119 44.6082C42.0129 44.1121 41.3892 43.6455 40.7769 43.1655H40.1694C39.7485 43.4807 39.3009 43.7664 38.9115 44.1159C35.9367 46.7774 32.4448 48.2457 28.492 48.639C27.5617 48.7314 26.6247 48.7533 25.6896 48.7961C24.8316 48.8352 24.2355 49.3484 24.226 50.1245C24.1793 54.0449 23.9851 57.9672 24.3707 61.8837C24.5555 63.7606 24.8507 65.6146 25.3687 67.4305C26.5019 71.3995 28.5597 74.7799 31.7411 77.4481C34.1855 79.4983 36.9813 80.9095 39.977 81.9408C40.1237 81.9912 40.2922 82.0112 40.4636 82.0065C40.6741 82.0017 40.8883 81.9627 41.074 81.9008C42.828 81.319 44.504 80.5533 46.1018 79.6221C50.7288 76.9234 53.8664 73.0383 55.4328 67.9009C56.427 64.6424 56.7612 61.2924 56.7869 57.9072C56.8069 55.3885 56.7507 52.8698 56.726 50.3521ZM40.4636 68.3913H38.0278C38.1611 67.8466 38.2916 67.3134 38.423 66.7811C38.8048 65.2232 39.1876 63.6663 39.5704 62.1084C39.6399 61.8228 39.5847 61.7057 39.3257 61.5695C38.6144 61.1972 38.1649 60.621 37.9811 59.8402C37.6459 58.4118 38.7058 56.9492 40.1579 56.7807C40.176 56.7788 40.1941 56.7769 40.2122 56.7749C40.2294 56.774 40.2484 56.7721 40.2655 56.7711C40.2922 56.7692 40.3189 56.7673 40.3455 56.7664C40.3855 56.7645 40.4246 56.7635 40.4636 56.7645C40.495 56.7645 40.5274 56.7654 40.5588 56.7673C40.5826 56.7673 40.6064 56.7692 40.6312 56.7721C40.6322 56.7711 40.6341 56.7711 40.635 56.7721C40.6512 56.773 40.6674 56.774 40.6836 56.7759C40.7274 56.7788 40.7712 56.7845 40.815 56.7921C40.8436 56.7959 40.8721 56.8007 40.9007 56.8054C40.9035 56.8054 40.9055 56.8054 40.9083 56.8064C40.9369 56.8121 40.9664 56.8178 40.995 56.8245C41.0302 56.8321 41.0654 56.8407 41.1007 56.8502C41.1359 56.8597 41.1711 56.8692 41.2054 56.8807C41.2321 56.8883 41.2587 56.8968 41.2854 56.9073C41.3054 56.914 41.3263 56.9206 41.3463 56.9292C41.3797 56.9416 41.413 56.9549 41.4463 56.9692C41.4682 56.9768 41.4892 56.9863 41.5101 56.9968C41.5301 57.0054 41.5501 57.0149 41.5692 57.0244C41.5758 57.0273 41.5825 57.0302 41.5882 57.034C41.6073 57.0425 41.6253 57.0521 41.6434 57.0625C41.6644 57.073 41.6863 57.0844 41.7072 57.0968C41.7377 57.1139 41.7672 57.1311 41.7977 57.1501C41.8006 57.152 41.8044 57.1539 41.8072 57.1558C41.8348 57.173 41.8615 57.1911 41.8882 57.2092C41.9205 57.2301 41.952 57.253 41.9834 57.2768C42.0129 57.2987 42.0415 57.3206 42.0691 57.3434C42.0958 57.3644 42.1215 57.3863 42.1472 57.4091C42.1624 57.4225 42.1776 57.4358 42.1919 57.4491C42.2138 57.4691 42.2348 57.4891 42.2557 57.5101C42.3157 57.5682 42.3729 57.631 42.4262 57.6958C42.4452 57.7177 42.4633 57.7405 42.4814 57.7643C42.4881 57.7719 42.4938 57.7796 42.5005 57.7881C42.5166 57.8091 42.5328 57.8319 42.5481 57.8538C42.5633 57.8757 42.5785 57.8976 42.5938 57.9205C42.6023 57.9319 42.61 57.9433 42.6166 57.9557C42.6338 57.9805 42.649 58.0062 42.6633 58.0319C42.669 58.0405 42.6747 58.05 42.6804 58.0595C42.6995 58.0938 42.7185 58.129 42.7366 58.1643C42.7442 58.1786 42.7518 58.1928 42.7585 58.2081C42.7652 58.2205 42.7709 58.2328 42.7766 58.2462C42.7871 58.2662 42.7966 58.2871 42.8052 58.309C42.8176 58.3366 42.829 58.3652 42.8404 58.3928C42.8499 58.4185 42.8604 58.4442 42.869 58.4699C42.8842 58.5128 42.8985 58.5575 42.9118 58.6013C42.9156 58.6137 42.9185 58.6261 42.9223 58.6385C42.9413 58.7032 42.9566 58.7689 42.9699 58.8356C43.1775 59.884 42.6481 61.0086 41.6749 61.5362C41.3235 61.7266 41.2873 61.8037 41.3816 62.1875C41.8748 64.1958 42.37 66.204 42.8642 68.2123C42.8775 68.2675 42.8871 68.3228 42.9014 68.3913H40.4636ZM40.4636 79.1888C40.4093 79.1878 40.357 79.1802 40.3132 79.164C37.9145 78.2823 35.6653 77.1272 33.6713 75.5093C30.7869 73.1687 28.9225 70.1692 27.9426 66.6059C27.7084 65.7536 27.5141 64.8957 27.3617 64.0301C27.3598 64.0253 27.3589 64.0196 27.3589 64.0139C27.1208 62.6607 26.9856 61.2914 26.9599 59.9107C26.9104 57.2301 26.9428 54.5477 26.9408 51.8661C26.9399 51.7662 26.9494 51.6662 26.957 51.4986C32.0382 51.3043 36.5966 49.7798 40.4636 46.3831V56.0322C40.2998 56.0322 40.1332 56.0446 39.9665 56.0712C38.6229 56.2807 37.5545 57.2873 37.2603 58.6175C36.9737 59.9116 37.5383 61.2962 38.661 62.0275C38.7858 62.1085 38.8029 62.1761 38.7696 62.3122C38.2497 64.4024 37.7354 66.4935 37.2222 68.5856C37.1317 68.9503 37.2831 69.1407 37.6602 69.1407H40.4636V79.1888Z" fill="#214F36"/>
<path d="M23.5975 38.2068H18.1812V43.6231L23.5975 38.2068Z" fill="#214F36"/>
<path d="M57.3287 38.2065H62.7451V43.6229L57.3287 38.2065Z" fill="#214F36"/>
<path d="M23.5975 86.9676H18.1812V81.5503L23.5975 86.9676Z" fill="#214F36"/>
<path d="M57.3287 86.9673H62.7451V81.55L57.3287 86.9673Z" fill="#214F36"/>
<path d="M78.3476 65.0888H75.8699L71.0458 57.1757V65.0888H68.5681V53.062H71.0458L75.8785 60.9922V53.062H78.3486V65.0888H78.3476ZM79.835 65.0888V53.062H83.5354C84.5924 53.062 85.5389 53.3 86.3731 53.7762C87.2073 54.2523 87.8586 54.9303 88.3271 55.8082C88.7947 56.6872 89.0289 57.6851 89.0289 58.803V59.3563C89.0289 60.4742 88.7985 61.4684 88.3395 62.3387C87.8796 63.2091 87.2311 63.8832 86.3941 64.3622C85.557 64.8412 84.6124 65.084 83.5611 65.0888H79.835ZM82.3128 55.0693V63.0986H83.5107C84.4801 63.0986 85.2209 62.7824 85.7332 62.1483C86.2455 61.515 86.5064 60.6094 86.5179 59.4306V58.7945C86.5179 57.5718 86.2646 56.6453 85.758 56.0149C85.2514 55.3845 84.5105 55.0693 83.5354 55.0693H82.3128ZM92.6312 60.8513V65.0888H90.1535V53.062H94.8452C95.7479 53.062 96.543 53.2267 97.2287 53.5571C97.9143 53.8876 98.4418 54.357 98.8103 54.9655C99.1788 55.574 99.3636 56.2663 99.3636 57.0433C99.3636 58.2222 98.9598 59.1516 98.1533 59.8315C97.3467 60.5114 96.2298 60.8513 94.8033 60.8513H92.6312ZM92.6312 58.844H94.8452C95.5003 58.844 96.0003 58.6897 96.344 58.3812C96.6878 58.0727 96.8601 57.6327 96.8601 57.0595C96.8601 56.47 96.6868 55.9939 96.3393 55.6302C95.9926 55.2664 95.5137 55.0798 94.9023 55.0684H92.6303V58.844H92.6312ZM104.841 60.6866H102.867V65.0897H100.389V53.062H104.858C106.279 53.062 107.375 53.3791 108.146 54.0123C108.917 54.6456 109.302 55.5407 109.302 56.6967C109.302 57.5175 109.124 58.2012 108.769 58.7497C108.414 59.2982 107.876 59.7343 107.154 60.059L109.756 64.9745V65.0897H107.097L104.841 60.6866ZM102.867 58.6792H104.866C105.487 58.6792 105.969 58.5212 106.311 58.2041C106.652 57.8879 106.823 57.4509 106.823 56.8947C106.823 56.3272 106.663 55.8816 106.34 55.5568C106.018 55.2321 105.524 55.0693 104.857 55.0693H102.866V58.6792H102.867ZM120.835 62.6111H116.49L115.664 65.0888H113.029L117.507 53.061H119.803L124.306 65.0888H121.671L120.835 62.6111ZM117.158 60.6037H120.165L118.653 56.1015L117.158 60.6037ZM129.855 64.1803C129.266 64.8964 128.451 65.2545 127.41 65.2545C126.452 65.2545 125.721 64.9793 125.217 64.4289C124.713 63.8785 124.455 63.071 124.445 62.0083V56.152H126.832V61.9331C126.832 62.8643 127.256 63.3309 128.104 63.3309C128.914 63.3309 129.47 63.05 129.772 62.4873V56.152H132.168V65.0897H129.921L129.855 64.1803ZM132.921 60.5542C132.921 59.1611 133.233 58.0517 133.858 57.2252C134.483 56.3996 135.338 55.9863 136.423 55.9863C137.293 55.9863 138.011 56.311 138.579 56.9614V52.4011H140.975V65.0897H138.819L138.703 64.1394C138.108 64.8831 137.343 65.2545 136.407 65.2545C135.354 65.2545 134.511 64.8402 133.875 64.0118C133.24 63.1824 132.921 62.0302 132.921 60.5542ZM135.308 60.7313C135.308 61.5703 135.454 62.2121 135.746 62.6587C136.037 63.1053 136.462 63.329 137.018 63.329C137.756 63.329 138.276 63.0177 138.58 62.3939V58.8611C138.283 58.2384 137.767 57.926 137.035 57.926C135.884 57.927 135.308 58.8621 135.308 60.7313ZM142.133 53.8381C142.133 53.48 142.252 53.1858 142.492 52.9544C142.731 52.723 143.057 52.6078 143.47 52.6078C143.878 52.6078 144.203 52.723 144.446 52.9544C144.687 53.1858 144.809 53.48 144.809 53.8381C144.809 54.2018 144.686 54.4989 144.442 54.7303C144.197 54.9617 143.873 55.0769 143.471 55.0769C143.07 55.0769 142.746 54.9617 142.501 54.7303C142.254 54.4989 142.133 54.2018 142.133 53.8381ZM144.668 65.0888H142.272V56.151H144.668V65.0888ZM148.815 53.9542V56.152H150.344V57.9032H148.815V62.3635C148.815 62.6939 148.878 62.931 149.006 63.0738C149.132 63.2167 149.374 63.289 149.732 63.289C149.997 63.289 150.23 63.27 150.434 63.231V65.0402C149.966 65.1831 149.484 65.2554 148.989 65.2554C147.315 65.2554 146.461 64.4098 146.428 62.7196V57.9041H145.123V56.153H146.428V53.9552H148.815V53.9542Z" fill="#204E35"/>
<path d="M74.3291 72.4836C73.9787 72.2912 73.7045 72.0255 73.5054 71.6884C73.3064 71.3504 73.2074 70.9704 73.2074 70.5486C73.2074 70.1258 73.3064 69.7459 73.5054 69.4078C73.7045 69.0698 73.9797 68.8051 74.332 68.6127C74.6843 68.4203 75.0776 68.3242 75.5128 68.3242C75.8527 68.3242 76.1632 68.3813 76.445 68.4956C76.7269 68.6098 76.9668 68.7784 77.1659 69.0022L76.7621 69.3935C76.4345 69.0498 76.027 68.8774 75.5375 68.8774C75.2147 68.8774 74.9224 68.9498 74.6615 69.0945C74.4006 69.2393 74.1968 69.4392 74.0492 69.6944C73.9025 69.9496 73.8283 70.2344 73.8283 70.5486C73.8283 70.8628 73.9016 71.1485 74.0492 71.4028C74.1958 71.658 74.4006 71.8579 74.6615 72.0027C74.9224 72.1474 75.2147 72.2198 75.5375 72.2198C76.0222 72.2198 76.4307 72.0455 76.7621 71.698L77.1659 72.0893C76.9668 72.3131 76.7259 72.4826 76.4422 72.5988C76.1584 72.715 75.847 72.773 75.5071 72.773C75.0719 72.773 74.6796 72.6759 74.3291 72.4836ZM80.1054 72.4836C79.7531 72.2912 79.477 72.0246 79.276 71.6846C79.0751 71.3447 78.9742 70.9657 78.9742 70.5477C78.9742 70.1296 79.0742 69.7497 79.276 69.4107C79.477 69.0707 79.7531 68.8051 80.1054 68.6118C80.4578 68.4194 80.8529 68.3232 81.2929 68.3232C81.7281 68.3232 82.1213 68.4194 82.4737 68.6118C82.826 68.8041 83.1012 69.0698 83.3002 69.4069C83.4992 69.7449 83.5982 70.1249 83.5982 70.5477C83.5982 70.9704 83.4992 71.3504 83.3002 71.6875C83.1012 72.0255 82.826 72.2903 82.4737 72.4826C82.1213 72.675 81.7281 72.7711 81.2929 72.7711C80.8539 72.773 80.4578 72.6759 80.1054 72.4836ZM82.1537 72.0017C82.4089 71.857 82.6098 71.657 82.7565 71.4018C82.9031 71.1466 82.9774 70.8619 82.9774 70.5477C82.9774 70.2334 82.9041 69.9477 82.7565 69.6935C82.6098 69.4383 82.4089 69.2393 82.1537 69.0936C81.8985 68.9488 81.6119 68.8765 81.2929 68.8765C80.9739 68.8765 80.6853 68.9488 80.4263 69.0936C80.1673 69.2383 79.9645 69.4383 79.8169 69.6935C79.6703 69.9487 79.596 70.2334 79.596 70.5477C79.596 70.8619 79.6693 71.1476 79.8169 71.4018C79.9635 71.657 80.1673 71.857 80.4263 72.0017C80.6853 72.1465 80.9739 72.2188 81.2929 72.2188C81.6119 72.2198 81.8985 72.1474 82.1537 72.0017ZM89.9497 72.7226L89.943 69.5535L88.3709 72.195H88.0852L86.5131 69.5726V72.7235H85.916V68.3737H86.4255L88.2404 71.4313L90.0306 68.3737H90.5401L90.5468 72.7235H89.9497V72.7226ZM96.245 68.7765C96.5678 69.046 96.7296 69.4164 96.7296 69.8887C96.7296 70.361 96.5678 70.7314 96.245 71.0009C95.9221 71.2704 95.4784 71.4047 94.9147 71.4047H93.8396V72.7226H93.2178V68.3727H94.9147C95.4784 68.3727 95.9221 68.507 96.245 68.7765ZM95.7974 70.6134C96.004 70.4458 96.1078 70.2039 96.1078 69.8897C96.1078 69.5745 96.004 69.3335 95.7974 69.1659C95.5898 68.9984 95.2899 68.9146 94.8966 68.9146H93.8405V70.8657H94.8966C95.2899 70.8648 95.5908 70.781 95.7974 70.6134ZM99.0103 68.3727H99.6321V72.1827H101.987V72.7235H99.0103V68.3727ZM104.07 68.3727H104.691V72.7226H104.07V68.3727ZM110.134 71.6351H107.822L107.343 72.7226H106.703L108.674 68.3727H109.289L111.265 72.7226H110.612L110.134 71.6351ZM109.917 71.138L108.979 69.006L108.041 71.138H109.917ZM117.02 68.3727V72.7226H116.511L113.9 69.4783V72.7226H113.279V68.3727H113.788L116.398 71.617V68.3727H117.02ZM120.557 68.9136H119.065V68.3727H122.664V68.9136H121.173V72.7235H120.558V68.9136H120.557ZM130.45 72.1827V72.7235H127.324V72.3007L129.095 70.5915C129.311 70.3839 129.456 70.2048 129.531 70.0534C129.605 69.902 129.642 69.7497 129.642 69.5964C129.642 69.3688 129.562 69.1917 129.403 69.065C129.243 68.9384 129.014 68.8755 128.716 68.8755C128.235 68.8755 127.865 69.0326 127.604 69.3478L127.181 68.9812C127.351 68.7736 127.574 68.6127 127.85 68.4965C128.125 68.3804 128.433 68.3223 128.773 68.3223C129.229 68.3223 129.591 68.4308 129.86 68.6489C130.129 68.866 130.264 69.1612 130.264 69.5345C130.264 69.7668 130.214 69.9858 130.114 70.1934C130.015 70.401 129.827 70.6372 129.549 70.9019L128.218 72.1817H130.45V72.1827ZM133.169 72.5083C132.901 72.3322 132.692 72.076 132.539 71.7408C132.385 71.4056 132.309 71.0076 132.309 70.5477C132.309 70.0877 132.385 69.6897 132.539 69.3545C132.692 69.0193 132.902 68.7632 133.169 68.587C133.437 68.4108 133.741 68.3232 134.086 68.3232C134.426 68.3232 134.729 68.4118 134.996 68.587C135.264 68.7632 135.473 69.0193 135.627 69.3545C135.78 69.6897 135.856 70.0877 135.856 70.5477C135.856 71.0076 135.779 71.4056 135.627 71.7408C135.473 72.076 135.263 72.3322 134.996 72.5083C134.729 72.6845 134.426 72.7721 134.086 72.7721C133.741 72.773 133.437 72.6845 133.169 72.5083ZM134.921 71.7903C135.131 71.5047 135.235 71.0904 135.235 70.5477C135.235 70.0049 135.131 69.5907 134.921 69.305C134.712 69.0193 134.434 68.8765 134.085 68.8765C133.733 68.8765 133.452 69.0193 133.243 69.305C133.034 69.5907 132.929 70.0049 132.929 70.5477C132.929 71.0904 133.034 71.5047 133.243 71.7903C133.453 72.076 133.733 72.2188 134.085 72.2188C134.434 72.2198 134.713 72.0769 134.921 71.7903ZM140.859 72.1827V72.7235H137.733V72.3007L139.504 70.5915C139.72 70.3839 139.865 70.2048 139.939 70.0534C140.014 69.902 140.051 69.7497 140.051 69.5964C140.051 69.3688 139.971 69.1917 139.812 69.065C139.652 68.9384 139.423 68.8755 139.125 68.8755C138.644 68.8755 138.274 69.0326 138.013 69.3478L137.59 68.9812C137.76 68.7736 137.983 68.6127 138.259 68.4965C138.534 68.3804 138.842 68.3223 139.181 68.3223C139.638 68.3223 139.999 68.4308 140.269 68.6489C140.538 68.866 140.673 69.1612 140.673 69.5345C140.673 69.7668 140.623 69.9858 140.523 70.1934C140.424 70.401 140.236 70.6372 139.958 70.9019L138.627 72.1817H140.859V72.1827ZM145.794 72.1827V72.7235H142.668V72.3007L144.439 70.5915C144.654 70.3839 144.8 70.2048 144.874 70.0534C144.948 69.902 144.985 69.7497 144.985 69.5964C144.985 69.3688 144.905 69.1917 144.746 69.065C144.586 68.9384 144.358 68.8755 144.06 68.8755C143.579 68.8755 143.209 69.0326 142.948 69.3478L142.525 68.9812C142.694 68.7736 142.917 68.6127 143.193 68.4965C143.468 68.3804 143.776 68.3223 144.116 68.3223C144.572 68.3223 144.934 68.4308 145.203 68.6489C145.473 68.866 145.607 69.1612 145.607 69.5345C145.607 69.7668 145.558 69.9858 145.458 70.1934C145.359 70.401 145.17 70.6372 144.892 70.9019L143.562 72.1817H145.794V72.1827Z" fill="#99CB87"/>
</svg>
