<svg width="23" height="17" viewBox="0 0 23 17" fill="none" xmlns="http://www.w3.org/2000/svg">
<path d="M20.5 5C19.05 5 18.24 6.44 18.57 7.51L15.02 11.07C14.72 10.98 14.28 10.98 13.98 11.07L11.43 8.52C11.77 7.45 10.96 6 9.5 6C8.05 6 7.23 7.44 7.57 8.52L3.01 13.07C1.94 12.74 0.5 13.55 0.5 15C0.5 16.1 1.4 17 2.5 17C3.95 17 4.76 15.56 4.43 14.49L8.98 9.93C9.28 10.02 9.72 10.02 10.02 9.93L12.57 12.48C12.23 13.55 13.04 15 14.5 15C15.95 15 16.77 13.56 16.43 12.48L19.99 8.93C21.06 9.26 22.5 8.45 22.5 7C22.5 5.9 21.6 5 20.5 5Z" fill="white"/>
<path d="M14.5 6L15.44 3.93L17.5 3L15.44 2.07L14.5 0L13.58 2.07L11.5 3L13.58 3.93L14.5 6Z" fill="white"/>
<path d="M3 8L3.5 6L5.5 5.5L3.5 5L3 3L2.5 5L0.5 5.5L2.5 6L3 8Z" fill="white"/>
</svg>
