<svg width="41" height="41" viewBox="0 0 41 41" fill="none" xmlns="http://www.w3.org/2000/svg">
<rect x="0.642853" y="0.321289" width="40" height="40" rx="20" fill="black"/>
<path d="M34.3413 13.4517C34.0118 12.2278 33.0468 11.2628 31.8229 10.9333C29.5868 10.3213 20.6428 10.3213 20.6428 10.3213C20.6428 10.3213 11.6987 10.3213 9.46269 10.9097C8.2623 11.2392 7.27375 12.2278 6.94423 13.4517C6.3558 15.6877 6.3558 20.3245 6.3558 20.3245C6.3558 20.3245 6.3558 24.9849 6.94423 27.1973C7.27375 28.4213 8.23877 29.3863 9.46269 29.7158C11.7222 30.3278 20.6428 30.3278 20.6428 30.3278C20.6428 30.3278 29.5868 30.3278 31.8229 29.7393C33.0468 29.4098 34.0118 28.4448 34.3413 27.2209C34.9297 24.9849 34.9297 20.3481 34.9297 20.3481C34.9297 20.3481 34.9533 15.6877 34.3413 13.4517Z" fill="white"/>
<path d="M17.7948 24.6082L25.2325 20.3245L17.7948 16.0408V24.6082Z" fill="black"/>
</svg>
